<mxfile host="app.diagrams.net" modified="2024-02-08T05:29:43.477Z" agent="Mozilla/5.0 (Macintosh; Intel Mac OS X 10_15_7) AppleWebKit/537.36 (KHTML, like Gecko) Chrome/120.0.0.0 Safari/537.36" etag="gfHzLsYC98X3AtUT8sGG" version="22.1.16" type="device">
  <diagram name="Page-1" id="8FTfbC2rcARjfSEzrA1y">
    <mxGraphModel dx="1969" dy="628" grid="1" gridSize="10" guides="1" tooltips="1" connect="1" arrows="1" fold="1" page="1" pageScale="1" pageWidth="850" pageHeight="1100" math="0" shadow="0">
      <root>
        <mxCell id="0" />
        <mxCell id="1" parent="0" />
        <mxCell id="qcpOVHYHYP0Mq-8yIyMg-1" value="" style="rounded=1;whiteSpace=wrap;html=1;fillColor=#d5e8d4;strokeColor=#82b366;fontSize=14;fontStyle=1" parent="1" vertex="1">
          <mxGeometry x="30" y="110" width="620" height="240" as="geometry" />
        </mxCell>
        <mxCell id="dGWNmFKTLpFATUwak8nD-17" style="edgeStyle=orthogonalEdgeStyle;rounded=0;orthogonalLoop=1;jettySize=auto;html=1;exitX=1;exitY=0.5;exitDx=0;exitDy=0;entryX=0;entryY=0.5;entryDx=0;entryDy=0;" edge="1" parent="1" source="qcpOVHYHYP0Mq-8yIyMg-4" target="qcpOVHYHYP0Mq-8yIyMg-21">
          <mxGeometry relative="1" as="geometry">
            <Array as="points">
              <mxPoint x="97" y="252" />
              <mxPoint x="97" y="198" />
            </Array>
          </mxGeometry>
        </mxCell>
        <mxCell id="qcpOVHYHYP0Mq-8yIyMg-4" value="" style="shape=image;html=1;verticalAlign=top;verticalLabelPosition=bottom;labelBackgroundColor=#ffffff;imageAspect=0;aspect=fixed;image=https://cdn4.iconfinder.com/data/icons/ionicons/512/icon-social-github-128.png;fontSize=14;fontStyle=1" parent="1" vertex="1">
          <mxGeometry x="43.88" y="233.01" width="39" height="39" as="geometry" />
        </mxCell>
        <mxCell id="qcpOVHYHYP0Mq-8yIyMg-8" value="&lt;br&gt;&lt;br&gt;&lt;br&gt;&lt;br&gt;GitOps" style="sketch=0;outlineConnect=0;fontColor=#232F3E;gradientColor=none;strokeColor=#232F3E;fillColor=#ffffff;dashed=0;verticalLabelPosition=bottom;verticalAlign=top;align=center;html=1;fontSize=14;fontStyle=1;aspect=fixed;shape=mxgraph.aws4.resourceIcon;resIcon=mxgraph.aws4.users;" parent="1" vertex="1">
          <mxGeometry x="-50" y="147.36" width="73" height="73" as="geometry" />
        </mxCell>
        <mxCell id="qcpOVHYHYP0Mq-8yIyMg-17" value="" style="shape=image;verticalLabelPosition=bottom;labelBackgroundColor=default;verticalAlign=top;aspect=fixed;imageAspect=0;image=https://avatars.githubusercontent.com/u/44036562?s=280&amp;v=4;fontSize=14;fontStyle=1" parent="1" vertex="1">
          <mxGeometry x="35.25" y="130.32" width="48" height="48" as="geometry" />
        </mxCell>
        <mxCell id="dGWNmFKTLpFATUwak8nD-18" style="edgeStyle=orthogonalEdgeStyle;rounded=0;orthogonalLoop=1;jettySize=auto;html=1;exitX=1;exitY=0.5;exitDx=0;exitDy=0;entryX=0;entryY=0.5;entryDx=0;entryDy=0;" edge="1" parent="1" source="qcpOVHYHYP0Mq-8yIyMg-21" target="dGWNmFKTLpFATUwak8nD-10">
          <mxGeometry relative="1" as="geometry" />
        </mxCell>
        <mxCell id="qcpOVHYHYP0Mq-8yIyMg-21" value="Check&lt;br&gt;Coding Standards" style="rounded=1;whiteSpace=wrap;html=1;fontSize=14;fontStyle=1;fillColor=#dae8fc;strokeColor=#6c8ebf;" parent="1" vertex="1">
          <mxGeometry x="110.16000000000001" y="167.96" width="78.79" height="59.98" as="geometry" />
        </mxCell>
        <mxCell id="iks7YCqrPgkMSZUkMre9-4" style="edgeStyle=orthogonalEdgeStyle;rounded=0;orthogonalLoop=1;jettySize=auto;html=1;exitX=1;exitY=0.5;exitDx=0;exitDy=0;" parent="1" source="iks7YCqrPgkMSZUkMre9-13" target="qcpOVHYHYP0Mq-8yIyMg-4" edge="1">
          <mxGeometry relative="1" as="geometry">
            <mxPoint x="13" y="252.5" as="sourcePoint" />
          </mxGeometry>
        </mxCell>
        <mxCell id="qcpOVHYHYP0Mq-8yIyMg-31" value="" style="rounded=1;whiteSpace=wrap;html=1;fontSize=16;fontStyle=1;fillColor=#fff2cc;strokeColor=#d6b656;" parent="1" vertex="1">
          <mxGeometry x="670" y="130.32" width="100" height="137.62" as="geometry" />
        </mxCell>
        <mxCell id="qcpOVHYHYP0Mq-8yIyMg-36" value="GitHub Actions" style="text;html=1;strokeColor=none;fillColor=none;align=center;verticalAlign=middle;whiteSpace=wrap;rounded=0;fontSize=14;fontStyle=1" parent="1" vertex="1">
          <mxGeometry x="33.26" y="184.36" width="60.25" height="30" as="geometry" />
        </mxCell>
        <mxCell id="qcpOVHYHYP0Mq-8yIyMg-39" value="[CI/CD]&amp;nbsp; &amp;nbsp; san99tiago/san99tiago-cv" style="text;html=1;align=center;verticalAlign=middle;resizable=0;points=[];autosize=1;strokeColor=none;fillColor=none;fontStyle=1;fontSize=22;" parent="1" vertex="1">
          <mxGeometry x="145" y="70" width="390" height="40" as="geometry" />
        </mxCell>
        <mxCell id="iks7YCqrPgkMSZUkMre9-15" style="edgeStyle=orthogonalEdgeStyle;rounded=0;orthogonalLoop=1;jettySize=auto;html=1;exitX=1;exitY=0.5;exitDx=0;exitDy=0;entryX=0;entryY=0.5;entryDx=0;entryDy=0;" parent="1" source="iks7YCqrPgkMSZUkMre9-2" target="iks7YCqrPgkMSZUkMre9-14" edge="1">
          <mxGeometry relative="1" as="geometry" />
        </mxCell>
        <mxCell id="iks7YCqrPgkMSZUkMre9-2" value="CDK Synth&lt;br&gt;&amp;amp; Diff" style="rounded=1;whiteSpace=wrap;html=1;fontSize=14;fontStyle=1;fillColor=#dae8fc;strokeColor=#6c8ebf;" parent="1" vertex="1">
          <mxGeometry x="330" y="168.12" width="79.22" height="59.09" as="geometry" />
        </mxCell>
        <mxCell id="iks7YCqrPgkMSZUkMre9-8" value="" style="shape=image;verticalLabelPosition=bottom;labelBackgroundColor=default;verticalAlign=top;aspect=fixed;imageAspect=0;image=https://upload.wikimedia.org/wikipedia/commons/thumb/9/93/Amazon_Web_Services_Logo.svg/640px-Amazon_Web_Services_Logo.svg.png;" parent="1" vertex="1">
          <mxGeometry x="686.3" y="205.53" width="67.39" height="40.34" as="geometry" />
        </mxCell>
        <mxCell id="iks7YCqrPgkMSZUkMre9-9" value="" style="shape=image;verticalLabelPosition=bottom;labelBackgroundColor=default;verticalAlign=top;aspect=fixed;imageAspect=0;image=https://miro.medium.com/v2/resize:fit:500/1*LHt1OdlaWH2zM1jknkeYlg.png;" parent="1" vertex="1">
          <mxGeometry x="318.17" y="252.29000000000002" width="48.42" height="48.42" as="geometry" />
        </mxCell>
        <mxCell id="iks7YCqrPgkMSZUkMre9-13" value="" style="shape=image;verticalLabelPosition=bottom;labelBackgroundColor=default;verticalAlign=top;aspect=fixed;imageAspect=0;image=https://git-scm.com/images/logos/downloads/Git-Icon-1788C.png;" parent="1" vertex="1">
          <mxGeometry x="-45.65" y="220.36" width="64.29" height="64.29" as="geometry" />
        </mxCell>
        <mxCell id="dGWNmFKTLpFATUwak8nD-3" style="edgeStyle=orthogonalEdgeStyle;rounded=0;orthogonalLoop=1;jettySize=auto;html=1;entryX=0;entryY=0.5;entryDx=0;entryDy=0;" edge="1" parent="1" source="iks7YCqrPgkMSZUkMre9-14" target="iks7YCqrPgkMSZUkMre9-18">
          <mxGeometry relative="1" as="geometry" />
        </mxCell>
        <mxCell id="iks7YCqrPgkMSZUkMre9-14" value="IaC&lt;br&gt;Checkov&lt;br&gt;Validation" style="rounded=1;whiteSpace=wrap;html=1;fontSize=14;fontStyle=1;fillColor=#dae8fc;strokeColor=#6c8ebf;" parent="1" vertex="1">
          <mxGeometry x="440" y="167.96" width="80" height="61.13" as="geometry" />
        </mxCell>
        <mxCell id="iks7YCqrPgkMSZUkMre9-17" value="" style="shape=image;verticalLabelPosition=bottom;labelBackgroundColor=default;verticalAlign=top;aspect=fixed;imageAspect=0;image=https://raw.githubusercontent.com/bridgecrewio/checkov/main/docs/web/images/checkov_by_bridgecrew.png;rotation=0;" parent="1" vertex="1">
          <mxGeometry x="436.11999999999995" y="262.08" width="87.76" height="29.55" as="geometry" />
        </mxCell>
        <mxCell id="zWsqOKRnjrgEfBXB0Wx7-3" style="edgeStyle=orthogonalEdgeStyle;rounded=0;orthogonalLoop=1;jettySize=auto;html=1;exitX=1;exitY=0.5;exitDx=0;exitDy=0;entryX=0;entryY=0.5;entryDx=0;entryDy=0;" parent="1" source="iks7YCqrPgkMSZUkMre9-18" target="qcpOVHYHYP0Mq-8yIyMg-31" edge="1">
          <mxGeometry relative="1" as="geometry" />
        </mxCell>
        <mxCell id="iks7YCqrPgkMSZUkMre9-18" value="Deploy&lt;br&gt;CDK" style="rounded=1;whiteSpace=wrap;html=1;fontSize=14;fontStyle=1;fillColor=#dae8fc;strokeColor=#6c8ebf;" parent="1" vertex="1">
          <mxGeometry x="550" y="168.12" width="85" height="61.44" as="geometry" />
        </mxCell>
        <mxCell id="iks7YCqrPgkMSZUkMre9-24" value="" style="sketch=0;points=[[0,0,0],[0.25,0,0],[0.5,0,0],[0.75,0,0],[1,0,0],[0,1,0],[0.25,1,0],[0.5,1,0],[0.75,1,0],[1,1,0],[0,0.25,0],[0,0.5,0],[0,0.75,0],[1,0.25,0],[1,0.5,0],[1,0.75,0]];points=[[0,0,0],[0.25,0,0],[0.5,0,0],[0.75,0,0],[1,0,0],[0,1,0],[0.25,1,0],[0.5,1,0],[0.75,1,0],[1,1,0],[0,0.25,0],[0,0.5,0],[0,0.75,0],[1,0.25,0],[1,0.5,0],[1,0.75,0]];outlineConnect=0;fontColor=#232F3E;fillColor=#E7157B;strokeColor=#ffffff;dashed=0;verticalLabelPosition=bottom;verticalAlign=top;align=center;html=1;fontSize=12;fontStyle=0;aspect=fixed;shape=mxgraph.aws4.resourceIcon;resIcon=mxgraph.aws4.cloudformation;" parent="1" vertex="1">
          <mxGeometry x="547.5" y="248.65000000000003" width="45" height="45" as="geometry" />
        </mxCell>
        <mxCell id="iks7YCqrPgkMSZUkMre9-25" value="" style="outlineConnect=0;dashed=0;verticalLabelPosition=bottom;verticalAlign=top;align=center;html=1;shape=mxgraph.aws3.iam;fillColor=#759C3E;gradientColor=none;" parent="1" vertex="1">
          <mxGeometry x="601.25" y="247.50000000000003" width="30" height="50" as="geometry" />
        </mxCell>
        <mxCell id="iks7YCqrPgkMSZUkMre9-26" value="Detects&lt;br style=&quot;font-size: 12px;&quot;&gt;AWS Account&lt;br style=&quot;font-size: 12px;&quot;&gt;and Role *" style="text;html=1;strokeColor=none;fillColor=none;align=center;verticalAlign=middle;whiteSpace=wrap;rounded=0;fontSize=12;fontStyle=1;fontColor=#FF0000;" parent="1" vertex="1">
          <mxGeometry x="547.5" y="120.93" width="90" height="47.78" as="geometry" />
        </mxCell>
        <mxCell id="iks7YCqrPgkMSZUkMre9-27" value="GitHub" style="text;html=1;strokeColor=none;fillColor=none;align=center;verticalAlign=middle;whiteSpace=wrap;rounded=0;fontSize=14;fontStyle=1" parent="1" vertex="1">
          <mxGeometry x="33.260000000000005" y="270.91" width="60.25" height="30" as="geometry" />
        </mxCell>
        <mxCell id="iks7YCqrPgkMSZUkMre9-29" value="AWS&lt;br style=&quot;font-size: 15px;&quot;&gt;Account" style="text;html=1;strokeColor=none;fillColor=none;align=center;verticalAlign=middle;whiteSpace=wrap;rounded=0;fontSize=15;fontStyle=1" parent="1" vertex="1">
          <mxGeometry x="674.5" y="147.36" width="91" height="59" as="geometry" />
        </mxCell>
        <mxCell id="dGWNmFKTLpFATUwak8nD-1" value="" style="shape=image;verticalLabelPosition=bottom;labelBackgroundColor=default;verticalAlign=top;aspect=fixed;imageAspect=0;image=https://prettier.io/icon.png;" vertex="1" parent="1">
          <mxGeometry x="126.32" y="248.65" width="40.47" height="40.47" as="geometry" />
        </mxCell>
        <mxCell id="dGWNmFKTLpFATUwak8nD-2" value="" style="shape=image;verticalLabelPosition=bottom;labelBackgroundColor=default;verticalAlign=top;aspect=fixed;imageAspect=0;image=https://upload.wikimedia.org/wikipedia/commons/thumb/6/6a/JavaScript-logo.png/800px-JavaScript-logo.png;" vertex="1" parent="1">
          <mxGeometry x="198" y="250" width="45" height="45" as="geometry" />
        </mxCell>
        <mxCell id="dGWNmFKTLpFATUwak8nD-5" value="" style="shape=image;verticalLabelPosition=bottom;labelBackgroundColor=default;verticalAlign=top;aspect=fixed;imageAspect=0;image=https://upload.wikimedia.org/wikipedia/commons/thumb/4/4c/Typescript_logo_2020.svg/2048px-Typescript_logo_2020.svg.png;" vertex="1" parent="1">
          <mxGeometry x="372.94" y="252.79999999999998" width="48.11" height="48.11" as="geometry" />
        </mxCell>
        <mxCell id="dGWNmFKTLpFATUwak8nD-6" value="Prettier&lt;br&gt;Lint" style="text;html=1;strokeColor=none;fillColor=none;align=center;verticalAlign=middle;whiteSpace=wrap;rounded=0;fontSize=14;fontStyle=1" vertex="1" parent="1">
          <mxGeometry x="116.43" y="305.71" width="60.25" height="30" as="geometry" />
        </mxCell>
        <mxCell id="dGWNmFKTLpFATUwak8nD-7" value="AWS-CDK&lt;br&gt;TypeScript" style="text;html=1;strokeColor=none;fillColor=none;align=center;verticalAlign=middle;whiteSpace=wrap;rounded=0;fontSize=14;fontStyle=1" vertex="1" parent="1">
          <mxGeometry x="325.27" y="305.71" width="88.68" height="30" as="geometry" />
        </mxCell>
        <mxCell id="dGWNmFKTLpFATUwak8nD-8" value="Checkov" style="text;html=1;strokeColor=none;fillColor=none;align=center;verticalAlign=middle;whiteSpace=wrap;rounded=0;fontSize=14;fontStyle=1" vertex="1" parent="1">
          <mxGeometry x="442.5" y="305.71" width="75" height="30" as="geometry" />
        </mxCell>
        <mxCell id="dGWNmFKTLpFATUwak8nD-9" value="IAM OICD&lt;br&gt;Provider/Role" style="text;html=1;strokeColor=none;fillColor=none;align=center;verticalAlign=middle;whiteSpace=wrap;rounded=0;fontSize=14;fontStyle=1" vertex="1" parent="1">
          <mxGeometry x="553.75" y="305.21" width="77.5" height="31" as="geometry" />
        </mxCell>
        <mxCell id="dGWNmFKTLpFATUwak8nD-16" style="edgeStyle=orthogonalEdgeStyle;rounded=0;orthogonalLoop=1;jettySize=auto;html=1;exitX=1;exitY=0.5;exitDx=0;exitDy=0;entryX=0;entryY=0.5;entryDx=0;entryDy=0;" edge="1" parent="1" source="dGWNmFKTLpFATUwak8nD-10" target="iks7YCqrPgkMSZUkMre9-2">
          <mxGeometry relative="1" as="geometry" />
        </mxCell>
        <mxCell id="dGWNmFKTLpFATUwak8nD-10" value="Build&lt;br&gt;NextJS&lt;br&gt;App" style="rounded=1;whiteSpace=wrap;html=1;fontSize=14;fontStyle=1;fillColor=#dae8fc;strokeColor=#6c8ebf;" vertex="1" parent="1">
          <mxGeometry x="214" y="167.02" width="79.22" height="61.29" as="geometry" />
        </mxCell>
        <mxCell id="dGWNmFKTLpFATUwak8nD-13" value="Detects&lt;br style=&quot;font-size: 12px;&quot;&gt;AWS Account&lt;br style=&quot;font-size: 12px;&quot;&gt;and Role *" style="text;html=1;strokeColor=none;fillColor=none;align=center;verticalAlign=middle;whiteSpace=wrap;rounded=0;fontSize=12;fontStyle=1;fontColor=#FF0000;" vertex="1" parent="1">
          <mxGeometry x="324.61" y="120.18" width="90" height="47.78" as="geometry" />
        </mxCell>
        <mxCell id="dGWNmFKTLpFATUwak8nD-19" value="" style="shape=image;verticalLabelPosition=bottom;labelBackgroundColor=default;verticalAlign=top;aspect=fixed;imageAspect=0;image=https://static-00.iconduck.com/assets.00/nextjs-icon-512x512-y563b8iq.png;" vertex="1" parent="1">
          <mxGeometry x="249" y="248.65000000000003" width="47.71" height="47.71" as="geometry" />
        </mxCell>
        <mxCell id="dGWNmFKTLpFATUwak8nD-20" value="JavaScript&lt;br&gt;NextJS" style="text;html=1;strokeColor=none;fillColor=none;align=center;verticalAlign=middle;whiteSpace=wrap;rounded=0;fontSize=14;fontStyle=1" vertex="1" parent="1">
          <mxGeometry x="221.48000000000002" y="305.71" width="60.25" height="30" as="geometry" />
        </mxCell>
        <mxCell id="dGWNmFKTLpFATUwak8nD-22" value="&lt;span style=&quot;background-color: initial;&quot;&gt;The AWS Account is detected from the commit&#39;s branch:&lt;br&gt;&lt;/span&gt;" style="text;html=1;strokeColor=none;fillColor=none;align=left;verticalAlign=middle;whiteSpace=wrap;rounded=0;fontSize=14;fontStyle=1" vertex="1" parent="1">
          <mxGeometry x="126.32" y="350" width="387.5" height="35.71" as="geometry" />
        </mxCell>
        <mxCell id="dGWNmFKTLpFATUwak8nD-23" value="&lt;ul style=&quot;border-color: var(--border-color); font-family: Helvetica; font-size: 14px; font-style: normal; font-variant-ligatures: normal; font-variant-caps: normal; letter-spacing: normal; orphans: 2; text-align: left; text-indent: 0px; text-transform: none; widows: 2; word-spacing: 0px; -webkit-text-stroke-width: 0px; background-color: rgb(251, 251, 251); text-decoration-thickness: initial; text-decoration-style: initial; text-decoration-color: initial;&quot;&gt;&lt;li style=&quot;border-color: var(--border-color);&quot;&gt;&lt;span style=&quot;border-color: var(--border-color); background-color: initial;&quot;&gt;&lt;b style=&quot;&quot;&gt;&quot;&lt;font color=&quot;#ff0000&quot;&gt;main&lt;/font&gt;&quot; branch deploys to &lt;font color=&quot;#ff0000&quot;&gt;PROD&lt;/font&gt; Account with DNS &quot;&lt;font color=&quot;#ff0000&quot;&gt;san99tiago.com&lt;/font&gt;&quot;&amp;nbsp;&lt;/b&gt;&lt;/span&gt;&lt;/li&gt;&lt;li style=&quot;font-weight: 700; border-color: var(--border-color);&quot;&gt;&lt;span style=&quot;color: rgb(0, 0, 0);&quot;&gt;&quot;&lt;/span&gt;&lt;font color=&quot;#0000ff&quot;&gt;develop&lt;/font&gt;&quot; branch deploys to &lt;font color=&quot;#0000ff&quot;&gt;DEV&lt;/font&gt; Account with DNS &quot;&lt;font color=&quot;#0000ff&quot;&gt;dev.san99tiago.com&lt;/font&gt;&quot;&amp;nbsp;&lt;/li&gt;&lt;/ul&gt;" style="text;whiteSpace=wrap;html=1;" vertex="1" parent="1">
          <mxGeometry x="127.94" y="360" width="573.68" height="60" as="geometry" />
        </mxCell>
      </root>
    </mxGraphModel>
  </diagram>
</mxfile>
